<svg xmlns="http://www.w3.org/2000/svg" xmlns:xlink="http://www.w3.org/1999/xlink" width="1120" height="1200"><g transform="translate(0 0)"><path d="M0 0h1120v1200H0z" fill="#fff"/><path d="M660 160c0 49.7-40.3 90-90 90s-90-40.3-90-90 40.3-90 90-90 90 40.3 90 90z" fill="#fcd1a5"/><use xlink:href="#a" transform="matrix(1,0,0,1,500,70) translate(55.46666666666667 84.44444444444444)"/><use xlink:href="#b" transform="matrix(1,0,0,1,500,70) translate(49.84444444444444 106.66666666666667)"/><path d="M660 460c0 49.7-40.3 90-90 90s-90-40.3-90-90 40.3-90 90-90 90 40.3 90 90z" fill="#fcd1a5"/><use xlink:href="#c" transform="matrix(1,0,0,1,500,370) translate(55.46666666666667 84.44444444444444)"/><use xlink:href="#d" transform="matrix(1,0,0,1,500,370) translate(17.466666666666654 106.66666666666667)"/><path d="M660 760c0 49.7-40.3 90-90 90s-90-40.3-90-90 40.3-90 90-90 90 40.3 90 90z" fill="#fcd1a5"/><use xlink:href="#e" transform="matrix(1,0,0,1,500,670) translate(55.46666666666667 84.44444444444444)"/><use xlink:href="#f" transform="matrix(1,0,0,1,500,670) translate(7.36666666666666 106.66666666666667)"/><path d="M660 1040c0 49.7-40.3 90-90 90s-90-40.3-90-90 40.3-90 90-90 90 40.3 90 90z" fill="#fcd1a5"/><use xlink:href="#g" transform="matrix(1,0,0,1,500,950) translate(55.46666666666667 84.44444444444444)"/><use xlink:href="#h" transform="matrix(1,0,0,1,500,950) translate(36.7111111111111 106.66666666666667)"/><path d="M60 410.68h180v98.64H60z" fill="#fcd1a5"/><use xlink:href="#i" transform="matrix(1,0,0,1,80.00000000000001,410.6818181818182) translate(23.38888888888888 55.05555555555556)"/><path d="M860 411h180v98.64H860z" fill="#fcd1a5"/><use xlink:href="#j" transform="matrix(1,0,0,1,880,411) translate(22.89999999999999 55.05555555555556)"/><path d="M60 710.68h180v98.64H60z" fill="#fcd1a5"/><use xlink:href="#k" transform="matrix(1,0,0,1,80.00000000000001,710.6818181818182) translate(35.5111111111111 55.05555555555556)"/><path d="M860 460.32H760V460H660" stroke="#3d4752" stroke-width="2" fill="none"/><path d="M674.27 464.64L660 460l14.27-4.64z" fill="#3d4752"/><path d="M675.27 466l-15.3-4.96.03-1.04v-1.05l15.27-4.96zm-12.03-6l10.03 3.26v-6.52z" fill="#3d4752"/><path fill="#fff" d="M707.47 437.94h105.07v44.44H707.47z"/><use xlink:href="#l" transform="matrix(1,0,0,1,707.4666666666667,437.93686868686865) translate(0 16.666666666666668)"/><use xlink:href="#m" transform="matrix(1,0,0,1,707.4666666666667,437.93686868686865) translate(0 38.88888888888889)"/><use xlink:href="#n" transform="matrix(1,0,0,1,707.4666666666667,437.93686868686865) translate(5.222222222222223 38.88888888888889)"/><path d="M480 460H240" stroke="#3d4752" stroke-width="2" fill="none"/><path d="M480 460v1-2h.03zM254.27 464.64L240 460l14.27-4.64z" fill="#3d4752"/><path d="M255.27 466L240 461.06v-2.1l15.27-4.96zm-12.03-6l10.03 3.26v-6.52z" fill="#3d4752"/><path fill="#fff" d="M322.37 437.78h75.27v44.44h-75.27z"/><use xlink:href="#o" transform="matrix(1,0,0,1,322.3666666666667,437.77777777777777) translate(0 16.666666666666668)"/><use xlink:href="#m" transform="matrix(1,0,0,1,322.3666666666667,437.77777777777777) translate(0 38.88888888888889)"/><use xlink:href="#p" transform="matrix(1,0,0,1,322.3666666666667,437.77777777777777) translate(5.222222222222223 38.88888888888889)"/><path d="M570 250v119" stroke="#3d4752" stroke-width="2" fill="none"/><path d="M570 250h-1v-.03zm1 0h-1 1zM570 369l-4.64-14.27h9.28z" fill="#3d4752"/><path d="M570.72 370.02L570 370h-.72l-5.3-16.27h12.03zm-3.98-14.3l3.26 10.04 3.26-10.03z" fill="#3d4752"/><path fill="#fff" d="M532.37 287.28h75.27v44.44h-75.27z"/><use xlink:href="#o" transform="matrix(1,0,0,1,532.3666666666667,287.27776306675236) translate(0.005000000000002558 16.666666666666668)"/><use xlink:href="#q" transform="matrix(1,0,0,1,532.3666666666667,287.27776306675236) translate(0.4161111111111069 38.88888888888889)"/><path d="M241 436.04l266.18-211.6" stroke="#3d4752" stroke-width="2" fill="none"/><path d="M241.62 436.82l-1.62 1.3v-2.56l.38-.3zM498.9 236.94l-5.77-7.26 14.05-5.24z" fill="#3d4752"/><path d="M506.85 224.12l1.07 1-8.95 13.52-7.48-9.4 14.9-5.58zm-12.08 6.02l4.06 5.1 5.82-8.8z" fill="#3d4752"/><path fill="#fff" d="M330.78 319.13h86.62v22.22h-86.62z"/><use xlink:href="#r" transform="matrix(1,0,0,1,330.78049346422944,319.12603218117135) translate(0 16.666666666666668)"/><path d="M190.55 409.98l290.64-235.5" stroke="#3d4752" stroke-width="2" fill="none"/><path d="M191.12 410.68h-3.03l1.82-1.48zM473.03 187.06l-5.84-7.2 14-5.38z" fill="#3d4752"/><path d="M481.42 175.96l-8.3 12.8-7.57-9.34 15.48-5.96zm-12.6 4.34l4.12 5.06 5.74-8.85z" fill="#3d4752"/><path fill="#fff" d="M324.5 241.46h93.2v44.44h-93.2z"/><use xlink:href="#s" transform="matrix(1,0,0,1,324.48770878143057,241.460449197404) translate(0.005000000000002558 16.666666666666668)"/><use xlink:href="#t" transform="matrix(1,0,0,1,324.48770878143057,241.460449197404) translate(21.093888888888895 38.88888888888889)"/><path d="M656.8 187.27L895.9 410.3" stroke="#3d4752" stroke-width="2" fill="none"/><path d="M657.5 186.53l-1.37 1.47-.46-.43.66-2.12zM895.9 410.3l-13.6-6.35 6.32-6.78z" fill="#3d4752"/><path d="M897.42 411h-2.4l-14.4-6.72 8.2-8.8zm-13.46-7.37l9.56 4.46-5.1-9.24z" fill="#3d4752"/><path fill="#fff" d="M723.75 264.18h78.67v44.44h-78.67z"/><use xlink:href="#u" transform="matrix(1,0,0,1,723.745681043819,264.1805111992548) translate(13.727222222222231 16.666666666666668)"/><use xlink:href="#v" transform="matrix(1,0,0,1,723.745681043819,264.1805111992548) translate(0.005000000000002558 38.88888888888889)"/><path d="M570 670V550" stroke="#3d4752" stroke-width="2" fill="none"/><path d="M571 670.03l-1-.03h-1 2zM574.64 564.27h-9.28L570 550z" fill="#3d4752"/><path d="M570 550h1.05l4.96 15.27h-12l4.96-15.3zm-3.26 13.27h6.52L570 553.24z" fill="#3d4752"/><path fill="#fff" d="M524.38 598.9h91.24v22.2h-91.24z"/><use xlink:href="#w" transform="matrix(1,0,0,1,524.3777777777777,598.8888888888889) translate(0 16.666666666666668)"/><path d="M240 712.7h252.27" stroke="#3d4752" stroke-width="2" fill="none"/><path d="M492.27 712.7L478 717.33v-9.27z" fill="#3d4752"/><path d="M493.78 712.14l-.3.46-.54.93L477 718.7v-12zM479 715.96l10.03-3.26-10.03-3.26z" fill="#3d4752"/><path fill="#fff" d="M291.64 701.6h148.98v22.2H291.64z"/><use xlink:href="#x" transform="matrix(1,0,0,1,291.64371471745824,701.5855766069134) translate(0 16.666666666666668)"/><use xlink:href="#y" transform="matrix(1,0,0,1,291.64371471745824,701.5855766069134) translate(90.82222222222225 16.666666666666668)"/><path d="M480 760H241" stroke="#3d4752" stroke-width="2" fill="none"/><path d="M480 760v1-2h.03zM255.27 764.64L241 760l14.27-4.64z" fill="#3d4752"/><path d="M256.27 766L240 760.74v-1.46l16.27-5.28zm-12.03-6l10.03 3.26v-6.52z" fill="#3d4752"/><path fill="#fff" d="M321.76 748.9h146.02v22.2H321.76z"/><use xlink:href="#z" transform="matrix(1,0,0,1,321.763732756272,748.8888888888889) translate(0 16.666666666666668)"/><use xlink:href="#A" transform="matrix(1,0,0,1,321.763732756272,748.8888888888889) translate(94.9777777777778 16.666666666666668)"/><path d="M491.98 804.87H240" stroke="#3d4752" stroke-width="2" fill="none"/><path d="M492.6 805.87h-.62v-1zM254.27 809.5L240 804.87l14.27-4.64z" fill="#3d4752"/><path d="M255.27 810.88L240 805.92v-2.1l15.27-4.96zm-12.03-6l10.03 3.25v-6.52z" fill="#3d4752"/><path fill="#fff" d="M322.68 793.76h86.62v22.22h-86.62z"/><use xlink:href="#r" transform="matrix(1,0,0,1,322.68095627536013,793.7585176358962) translate(0 16.666666666666668)"/><path d="M860 486.2L655.8 732.8" stroke="#3d4752" stroke-width="2" fill="none"/><path d="M860 486.2l-.77-.65.77-.93zM668.46 724.77l-12.67 8.03 5.52-13.95z" fill="#3d4752"/><path d="M670.16 724.87l-14.05 8.9-.8-2.45 5.6-14.1zm-12.3 5.44l8.9-5.64-5.02-4.16z" fill="#3d4752"/><path fill="#fff" d="M736.2 559.02h90.2v44.44h-90.2z"/><use xlink:href="#B" transform="matrix(1,0,0,1,736.1853863069354,559.0221412950311) translate(18.23833333333334 16.666666666666668)"/><use xlink:href="#C" transform="matrix(1,0,0,1,736.1853863069354,559.0221412950311) translate(0.005000000000002558 38.88888888888889)"/><path d="M603.98 955.57L950 509.64" stroke="#3d4752" stroke-width="2" fill="none"/><path d="M604.77 956.18l-.46.6-.2-.1-1.74-.65.83-1.07zM944.92 523.75l-7.33-5.68 12.4-8.43z" fill="#3d4752"/><path d="M945.4 525.38l-9.5-7.37 12.32-8.36h2.84zm-6.1-7.26l5.14 4 3.58-9.93z" fill="#3d4752"/><path fill="#fff" d="M809.02 657.2h35.73v22.2h-35.73z"/><g><use xlink:href="#D" transform="matrix(1,0,0,1,809.0164384558333,657.1946095407359) translate(0 16.666666666666668)"/></g><path d="M1027.47 509.64l-376.8 490.43" stroke="#3d4752" stroke-width="2" fill="none"/><path d="M1028.26 510.25l-.8-.6h1.27zM663.04 991.58l-12.36 8.5 5-14.15z" fill="#3d4752"/><path d="M664.74 991.62L651.1 1001l-.4-.88-.66-1.25 5.17-14.57zm-12.1 5.88l8.7-5.97-5.17-3.97z" fill="#3d4752"/><path fill="#fff" d="M803.55 732.63h71.04v44.44h-71.05z"/><g><use xlink:href="#E" transform="matrix(1,0,0,1,803.550957425499,732.6289663147896) translate(12.1938888888889 16.666666666666668)"/><use xlink:href="#F" transform="matrix(1,0,0,1,803.550957425499,732.6289663147896) translate(0.005000000000002558 38.88888888888889)"/></g><defs><path fill="#3d4752" d="M53-519l211-141h91V0h-97v-548L98-442" id="G"/><path fill="#3d4752" d="M66 0v-132h103V0H66" id="H"/><path fill="#3d4752" d="M264-671c158 0 247 85 247 349 0 252-91 333-247 333C109 11 18-69 18-322c0-264 90-349 246-349zm1 93c-99 0-143 55-143 257 0 191 47 239 143 239s142-48 142-240c0-200-42-256-142-256" id="I"/><g id="a"><use transform="matrix(0.022222222222222227,0,0,0.022222222222222227,0,0)" xlink:href="#G"/><use transform="matrix(0.022222222222222227,0,0,0.022222222222222227,11.77777777777778,0)" xlink:href="#H"/><use transform="matrix(0.022222222222222227,0,0,0.022222222222222227,17.28888888888889,0)" xlink:href="#I"/></g><path fill="#3d4752" d="M479-683l-8 88s-140-17-198-17c-90 0-136 30-136 97 0 74 41 89 159 119 141 36 197 74 197 196 0 147-90 210-230 210-75 0-211-23-211-23l10-88s129 17 200 17c90 0 134-31 134-113 0-66-35-87-143-112-147-34-214-75-214-204 0-131 90-193 234-193 77 0 206 23 206 23" id="J"/><path fill="#3d4752" d="M441-345v226c1 34 19 44 49 48l-3 81c-70 0-99-11-127-36 0 0-87 37-174 37C96 11 46-47 46-146c0-102 54-141 160-150l140-12c6-68-13-112-74-112-74 0-192 12-192 12l-4-82s125-20 201-20c107 0 164 47 164 165zm-95 111c-81 12-204-12-204 86 0 50 22 77 61 77 64 0 143-25 143-25v-138" id="K"/><path fill="#3d4752" d="M78 0v-712h95V0H78" id="L"/><path fill="#3d4752" d="M262-76c77 0 184-9 184-9l2 75S334 11 249 11C99 10 45-73 45-246c0-186 80-264 213-264 138 0 207 71 207 231l-6 69H141c0 90 32 134 121 134zM140-284h231c0-104-33-142-113-142-78 0-117 41-118 142" id="M"/><g id="b"><use transform="matrix(0.022222222222222227,0,0,0.022222222222222227,0,0)" xlink:href="#J"/><use transform="matrix(0.022222222222222227,0,0,0.022222222222222227,11.822222222222225,0)" xlink:href="#K"/><use transform="matrix(0.022222222222222227,0,0,0.022222222222222227,23.466666666666672,0)" xlink:href="#L"/><use transform="matrix(0.022222222222222227,0,0,0.022222222222222227,29.04444444444445,0)" xlink:href="#M"/></g><path fill="#3d4752" d="M479 0H55v-89l173-177c82-84 136-139 136-212 0-71-43-97-132-97-72 0-165 19-165 19l-7-89s100-26 193-26c143 0 211 57 211 181 0 100-43 156-136 251L185-93h294V0" id="N"/><g id="c"><use transform="matrix(0.022222222222222227,0,0,0.022222222222222227,0,0)" xlink:href="#N"/><use transform="matrix(0.022222222222222227,0,0,0.022222222222222227,11.77777777777778,0)" xlink:href="#H"/><use transform="matrix(0.022222222222222227,0,0,0.022222222222222227,17.28888888888889,0)" xlink:href="#I"/></g><path fill="#3d4752" d="M335-221H180V0H83v-694h252c154 0 228 75 228 229s-74 244-228 244zm-155-93h155c89 0 129-58 129-151s-40-136-129-136H180v287" id="O"/><path fill="#3d4752" d="M81 0v-499h94v59s71-53 163-71v100c-92 18-163 61-163 61V0H81" id="P"/><path fill="#3d4752" d="M265-510c158 0 218 91 218 256 0 168-48 265-218 265C94 11 45-82 45-254c0-167 56-256 220-256zm0 435c103 0 122-60 122-179s-33-171-122-171c-96 0-124 48-124 171 0 124 21 179 124 179" id="Q"/><path fill="#3d4752" d="M465-700V0h-94v-29s-74 39-141 39C114 10 45-48 45-250c0-178 61-260 208-260 41 0 108 11 118 12v-202h94zM243-77c58 0 128-29 128-29v-309c-11-1-70-10-112-10-87 0-118 56-118 176 0 140 42 172 102 172" id="R"/><path fill="#3d4752" d="M384-499h95V0h-95v-29s-78 40-140 40C102 11 73-59 73-239v-260h95v259c0 122 9 165 93 165 56 0 123-30 123-30v-394" id="S"/><path fill="#3d4752" d="M254-510c50 0 144 16 144 16l-4 82s-79-9-117-9c-109 0-136 43-136 164 0 133 22 178 137 178 38 0 117-8 117-8l3 82s-97 16-146 16C96 11 45-64 45-257c0-181 60-253 209-253" id="T"/><path fill="#3d4752" d="M331-414H184v218c0 90 5 118 62 118 28 0 85-5 85-5l5 82s-67 12-102 12C125 11 90-30 90-174v-240H23v-85h67v-150h94v150h147v85" id="U"/><path fill="#3d4752" d="M76 0v-499h95V0H76zm0-596v-105h95v105H76" id="V"/><path fill="#3d4752" d="M175 0H81v-499h94v29s82-40 144-40c139 0 172 75 172 249V0h-95v-260c0-113-13-162-93-162-56 0-128 30-128 30V0" id="W"/><g id="d"><use transform="matrix(0.022222222222222227,0,0,0.022222222222222227,0,0)" xlink:href="#O"/><use transform="matrix(0.022222222222222227,0,0,0.022222222222222227,13.355555555555558,0)" xlink:href="#P"/><use transform="matrix(0.022222222222222227,0,0,0.022222222222222227,21.311111111111117,0)" xlink:href="#Q"/><use transform="matrix(0.022222222222222227,0,0,0.022222222222222227,33.04444444444445,0)" xlink:href="#R"/><use transform="matrix(0.022222222222222227,0,0,0.022222222222222227,45.17777777777779,0)" xlink:href="#S"/><use transform="matrix(0.022222222222222227,0,0,0.022222222222222227,57.60000000000001,0)" xlink:href="#T"/><use transform="matrix(0.022222222222222227,0,0,0.022222222222222227,67.2888888888889,0)" xlink:href="#U"/><use transform="matrix(0.022222222222222227,0,0,0.022222222222222227,75.26666666666668,0)" xlink:href="#V"/><use transform="matrix(0.022222222222222227,0,0,0.022222222222222227,80.75555555555557,0)" xlink:href="#Q"/><use transform="matrix(0.022222222222222227,0,0,0.022222222222222227,92.48888888888891,0)" xlink:href="#W"/></g><path fill="#3d4752" d="M58-647s107-24 195-24c162 0 218 56 218 175 0 93-62 127-91 146 63 26 106 57 106 158 0 135-65 203-218 203C166 11 48-13 48-13l11-88s109 18 197 18c88-1 130-35 130-106 1-126-137-101-256-103v-89h133c48 0 108-44 108-102 0-69-41-94-123-94-87 0-180 16-180 16" id="X"/><g id="e"><use transform="matrix(0.022222222222222227,0,0,0.022222222222222227,0,0)" xlink:href="#X"/><use transform="matrix(0.022222222222222227,0,0,0.022222222222222227,11.77777777777778,0)" xlink:href="#H"/><use transform="matrix(0.022222222222222227,0,0,0.022222222222222227,17.28888888888889,0)" xlink:href="#I"/></g><path fill="#3d4752" d="M175 0H81v-499h93v30c-3-3 109-45 160-39 47 6 79 16 102 42 36-14 113-44 178-44 136 0 171 69 171 249V0h-94v-227c0-143-6-195-94-195-59 0-123 29-125 31 18 96 7 273 10 391h-94v-257c0-122-12-165-94-165-55 0-119 30-119 30V0" id="Y"/><g id="f"><use transform="matrix(0.022222222222222227,0,0,0.022222222222222227,0,0)" xlink:href="#O"/><use transform="matrix(0.022222222222222227,0,0,0.022222222222222227,13.355555555555558,0)" xlink:href="#P"/><use transform="matrix(0.022222222222222227,0,0,0.022222222222222227,21.311111111111117,0)" xlink:href="#Q"/><use transform="matrix(0.022222222222222227,0,0,0.022222222222222227,33.04444444444445,0)" xlink:href="#T"/><use transform="matrix(0.022222222222222227,0,0,0.022222222222222227,42.73333333333334,0)" xlink:href="#S"/><use transform="matrix(0.022222222222222227,0,0,0.022222222222222227,55.155555555555566,0)" xlink:href="#P"/><use transform="matrix(0.022222222222222227,0,0,0.022222222222222227,63.11111111111112,0)" xlink:href="#M"/><use transform="matrix(0.022222222222222227,0,0,0.022222222222222227,74.3777777777778,0)" xlink:href="#Y"/><use transform="matrix(0.022222222222222227,0,0,0.022222222222222227,93.44444444444446,0)" xlink:href="#M"/><use transform="matrix(0.022222222222222227,0,0,0.022222222222222227,104.71111111111114,0)" xlink:href="#W"/><use transform="matrix(0.022222222222222227,0,0,0.022222222222222227,117.2888888888889,0)" xlink:href="#U"/></g><path fill="#3d4752" d="M335 6v-120H26v-80l181-466h107L137-207h198v-207h97v207h76v93h-76V6h-97" id="Z"/><g id="g"><use transform="matrix(0.022222222222222227,0,0,0.022222222222222227,0,0)" xlink:href="#Z"/><use transform="matrix(0.022222222222222227,0,0,0.022222222222222227,11.77777777777778,0)" xlink:href="#H"/><use transform="matrix(0.022222222222222227,0,0,0.022222222222222227,17.28888888888889,0)" xlink:href="#I"/></g><path fill="#3d4752" d="M19-499h94L226-91h30l114-408h94L268 217h-94L233 0h-78" id="aa"/><g id="h"><use transform="matrix(0.022222222222222227,0,0,0.022222222222222227,0,0)" xlink:href="#O"/><use transform="matrix(0.022222222222222227,0,0,0.022222222222222227,13.355555555555558,0)" xlink:href="#K"/><use transform="matrix(0.022222222222222227,0,0,0.022222222222222227,25.000000000000004,0)" xlink:href="#aa"/><use transform="matrix(0.022222222222222227,0,0,0.022222222222222227,35.73333333333334,0)" xlink:href="#P"/><use transform="matrix(0.022222222222222227,0,0,0.022222222222222227,43.6888888888889,0)" xlink:href="#Q"/><use transform="matrix(0.022222222222222227,0,0,0.022222222222222227,55.42222222222223,0)" xlink:href="#L"/><use transform="matrix(0.022222222222222227,0,0,0.022222222222222227,61.000000000000014,0)" xlink:href="#L"/></g><path fill="#3d4752" d="M493-101l3 88S382 11 303 11C94 11 47-113 47-346c0-243 55-359 256-359 89 0 193 25 193 25l-3 87s-113-17-178-17c-138 0-167 76-167 264 0 183 25 262 169 262 59 0 176-17 176-17" id="ab"/><path fill="#3d4752" d="M422-489l-2 80s-115-16-177-16c-60 0-96 15-96 64 0 38 23 49 114 64 132 21 177 51 177 149 0 117-75 159-197 159-67 0-181-21-181-21l4-81s118 16 169 16c76 0 110-16 110-70 0-42-21-52-110-66-125-21-181-46-181-148 0-112 90-151 185-151 74 0 185 21 185 21" id="ac"/><g id="i"><use transform="matrix(0.022222222222222227,0,0,0.022222222222222227,0,0)" xlink:href="#ab"/><use transform="matrix(0.022222222222222227,0,0,0.022222222222222227,11.888888888888891,0)" xlink:href="#S"/><use transform="matrix(0.022222222222222227,0,0,0.022222222222222227,24.311111111111117,0)" xlink:href="#ac"/><use transform="matrix(0.022222222222222227,0,0,0.022222222222222227,35.22222222222223,0)" xlink:href="#U"/><use transform="matrix(0.022222222222222227,0,0,0.022222222222222227,43.20000000000001,0)" xlink:href="#Q"/><use transform="matrix(0.022222222222222227,0,0,0.022222222222222227,54.933333333333344,0)" xlink:href="#Y"/><use transform="matrix(0.022222222222222227,0,0,0.022222222222222227,74.00000000000001,0)" xlink:href="#M"/><use transform="matrix(0.022222222222222227,0,0,0.022222222222222227,85.26666666666668,0)" xlink:href="#P"/></g><path fill="#3d4752" d="M83 0v-694h427v93H179v208h271v91H179v209h331V0H83" id="ad"/><path fill="#3d4752" d="M81 218v-717h94v30s71-41 137-41c128 0 187 71 187 255 0 202-68 266-221 266-44 0-94-9-103-11v218H81zm215-642c-54 0-121 33-121 33v308c9 1 58 8 97 8 99 0 130-49 130-181 0-125-39-168-106-168" id="ae"/><g id="j"><use transform="matrix(0.022222222222222227,0,0,0.022222222222222227,0,0)" xlink:href="#ad"/><use transform="matrix(0.022222222222222227,0,0,0.022222222222222227,12.466666666666669,0)" xlink:href="#Y"/><use transform="matrix(0.022222222222222227,0,0,0.022222222222222227,31.53333333333334,0)" xlink:href="#ae"/><use transform="matrix(0.022222222222222227,0,0,0.022222222222222227,43.622222222222234,0)" xlink:href="#L"/><use transform="matrix(0.022222222222222227,0,0,0.022222222222222227,49.20000000000002,0)" xlink:href="#Q"/><use transform="matrix(0.022222222222222227,0,0,0.022222222222222227,60.93333333333336,0)" xlink:href="#aa"/><use transform="matrix(0.022222222222222227,0,0,0.022222222222222227,71.66666666666669,0)" xlink:href="#M"/><use transform="matrix(0.022222222222222227,0,0,0.022222222222222227,82.93333333333335,0)" xlink:href="#M"/></g><path fill="#3d4752" d="M472-694h101L400 0H200L26-694h101L275-93h50" id="af"/><g id="k"><use transform="matrix(0.022222222222222227,0,0,0.022222222222222227,0,0)" xlink:href="#af"/><use transform="matrix(0.022222222222222227,0,0,0.022222222222222227,13.311111111111114,0)" xlink:href="#M"/><use transform="matrix(0.022222222222222227,0,0,0.022222222222222227,24.577777777777783,0)" xlink:href="#W"/><use transform="matrix(0.022222222222222227,0,0,0.022222222222222227,37.155555555555566,0)" xlink:href="#R"/><use transform="matrix(0.022222222222222227,0,0,0.022222222222222227,49.288888888888906,0)" xlink:href="#Q"/><use transform="matrix(0.022222222222222227,0,0,0.022222222222222227,61.02222222222225,0)" xlink:href="#P"/></g><g id="l"><use transform="matrix(0.022222222222222227,0,0,0.022222222222222227,0,0)" xlink:href="#O"/><use transform="matrix(0.022222222222222227,0,0,0.022222222222222227,13.355555555555558,0)" xlink:href="#P"/><use transform="matrix(0.022222222222222227,0,0,0.022222222222222227,21.311111111111117,0)" xlink:href="#Q"/><use transform="matrix(0.022222222222222227,0,0,0.022222222222222227,33.04444444444445,0)" xlink:href="#R"/><use transform="matrix(0.022222222222222227,0,0,0.022222222222222227,45.17777777777779,0)" xlink:href="#S"/><use transform="matrix(0.022222222222222227,0,0,0.022222222222222227,57.60000000000001,0)" xlink:href="#T"/><use transform="matrix(0.022222222222222227,0,0,0.022222222222222227,67.2888888888889,0)" xlink:href="#U"/><use transform="matrix(0.022222222222222227,0,0,0.022222222222222227,75.26666666666668,0)" xlink:href="#V"/><use transform="matrix(0.022222222222222227,0,0,0.022222222222222227,80.75555555555557,0)" xlink:href="#Q"/><use transform="matrix(0.022222222222222227,0,0,0.022222222222222227,92.48888888888891,0)" xlink:href="#W"/></g><path fill="#3d4752" d="M175 0H81v-720h94v241s81-31 144-31c138 0 171 75 171 249V0h-94v-260c0-113-13-162-94-162-55 0-127 23-127 23V0" id="ag"/><g id="n"><use transform="matrix(0.022222222222222227,0,0,0.022222222222222227,0,0)" xlink:href="#ac"/><use transform="matrix(0.022222222222222227,0,0,0.022222222222222227,10.911111111111113,0)" xlink:href="#T"/><use transform="matrix(0.022222222222222227,0,0,0.022222222222222227,20.6,0)" xlink:href="#ag"/><use transform="matrix(0.022222222222222227,0,0,0.022222222222222227,33.111111111111114,0)" xlink:href="#M"/><use transform="matrix(0.022222222222222227,0,0,0.022222222222222227,44.37777777777778,0)" xlink:href="#R"/><use transform="matrix(0.022222222222222227,0,0,0.022222222222222227,56.51111111111112,0)" xlink:href="#S"/><use transform="matrix(0.022222222222222227,0,0,0.022222222222222227,68.93333333333334,0)" xlink:href="#L"/><use transform="matrix(0.022222222222222227,0,0,0.022222222222222227,74.51111111111112,0)" xlink:href="#M"/></g><g id="o"><use transform="matrix(0.022222222222222227,0,0,0.022222222222222227,0,0)" xlink:href="#O"/><use transform="matrix(0.022222222222222227,0,0,0.022222222222222227,13.355555555555558,0)" xlink:href="#P"/><use transform="matrix(0.022222222222222227,0,0,0.022222222222222227,21.311111111111117,0)" xlink:href="#Q"/><use transform="matrix(0.022222222222222227,0,0,0.022222222222222227,33.04444444444445,0)" xlink:href="#R"/><use transform="matrix(0.022222222222222227,0,0,0.022222222222222227,45.17777777777779,0)" xlink:href="#S"/><use transform="matrix(0.022222222222222227,0,0,0.022222222222222227,57.60000000000001,0)" xlink:href="#T"/><use transform="matrix(0.022222222222222227,0,0,0.022222222222222227,67.2888888888889,0)" xlink:href="#U"/></g><path fill="#3d4752" d="M19-499h98L225-79h33l109-420h97L329 0H153" id="ah"/><g id="p"><use transform="matrix(0.022222222222222227,0,0,0.022222222222222227,0,0)" xlink:href="#ac"/><use transform="matrix(0.022222222222222227,0,0,0.022222222222222227,10.911111111111113,0)" xlink:href="#M"/><use transform="matrix(0.022222222222222227,0,0,0.022222222222222227,22.177777777777784,0)" xlink:href="#P"/><use transform="matrix(0.022222222222222227,0,0,0.022222222222222227,30.13333333333334,0)" xlink:href="#ah"/><use transform="matrix(0.022222222222222227,0,0,0.022222222222222227,40.844444444444456,0)" xlink:href="#M"/><use transform="matrix(0.022222222222222227,0,0,0.022222222222222227,52.11111111111113,0)" xlink:href="#R"/></g><g id="q"><use transform="matrix(0.022222222222222227,0,0,0.022222222222222227,0,0)" xlink:href="#Q"/><use transform="matrix(0.022222222222222227,0,0,0.022222222222222227,11.733333333333336,0)" xlink:href="#P"/><use transform="matrix(0.022222222222222227,0,0,0.022222222222222227,19.688888888888894,0)" xlink:href="#R"/><use transform="matrix(0.022222222222222227,0,0,0.022222222222222227,31.82222222222223,0)" xlink:href="#M"/><use transform="matrix(0.022222222222222227,0,0,0.022222222222222227,43.0888888888889,0)" xlink:href="#P"/><use transform="matrix(0.022222222222222227,0,0,0.022222222222222227,51.04444444444445,0)" xlink:href="#M"/><use transform="matrix(0.022222222222222227,0,0,0.022222222222222227,62.31111111111113,0)" xlink:href="#R"/></g><g id="r"><use transform="matrix(0.022222222222222227,0,0,0.022222222222222227,0,0)" xlink:href="#O"/><use transform="matrix(0.022222222222222227,0,0,0.022222222222222227,13.355555555555558,0)" xlink:href="#K"/><use transform="matrix(0.022222222222222227,0,0,0.022222222222222227,25.000000000000004,0)" xlink:href="#aa"/><use transform="matrix(0.022222222222222227,0,0,0.022222222222222227,35.73333333333334,0)" xlink:href="#Y"/><use transform="matrix(0.022222222222222227,0,0,0.022222222222222227,54.80000000000001,0)" xlink:href="#M"/><use transform="matrix(0.022222222222222227,0,0,0.022222222222222227,66.06666666666668,0)" xlink:href="#W"/><use transform="matrix(0.022222222222222227,0,0,0.022222222222222227,78.64444444444446,0)" xlink:href="#U"/></g><g id="s"><use transform="matrix(0.022222222222222227,0,0,0.022222222222222227,0,0)" xlink:href="#ab"/><use transform="matrix(0.022222222222222227,0,0,0.022222222222222227,11.888888888888891,0)" xlink:href="#S"/><use transform="matrix(0.022222222222222227,0,0,0.022222222222222227,24.311111111111117,0)" xlink:href="#ac"/><use transform="matrix(0.022222222222222227,0,0,0.022222222222222227,35.22222222222223,0)" xlink:href="#U"/><use transform="matrix(0.022222222222222227,0,0,0.022222222222222227,43.20000000000001,0)" xlink:href="#Q"/><use transform="matrix(0.022222222222222227,0,0,0.022222222222222227,54.933333333333344,0)" xlink:href="#Y"/><use transform="matrix(0.022222222222222227,0,0,0.022222222222222227,74.00000000000001,0)" xlink:href="#M"/><use transform="matrix(0.022222222222222227,0,0,0.022222222222222227,85.26666666666668,0)" xlink:href="#P"/></g><g id="t"><use transform="matrix(0.022222222222222227,0,0,0.022222222222222227,0,0)" xlink:href="#Q"/><use transform="matrix(0.022222222222222227,0,0,0.022222222222222227,11.733333333333336,0)" xlink:href="#P"/><use transform="matrix(0.022222222222222227,0,0,0.022222222222222227,19.688888888888894,0)" xlink:href="#R"/><use transform="matrix(0.022222222222222227,0,0,0.022222222222222227,31.82222222222223,0)" xlink:href="#M"/><use transform="matrix(0.022222222222222227,0,0,0.022222222222222227,43.0888888888889,0)" xlink:href="#P"/></g><g id="u"><use transform="matrix(0.022222222222222227,0,0,0.022222222222222227,0,0)" xlink:href="#J"/><use transform="matrix(0.022222222222222227,0,0,0.022222222222222227,11.822222222222225,0)" xlink:href="#K"/><use transform="matrix(0.022222222222222227,0,0,0.022222222222222227,23.466666666666672,0)" xlink:href="#L"/><use transform="matrix(0.022222222222222227,0,0,0.022222222222222227,29.04444444444445,0)" xlink:href="#M"/><use transform="matrix(0.022222222222222227,0,0,0.022222222222222227,40.31111111111112,0)" xlink:href="#ac"/></g><path fill="#3d4752" d="M179-414V0H84v-414H24v-85h60v-39c0-144 37-184 139-184 33 0 105 9 105 9l-1 78s-52-2-83-2c-50 0-65 22-65 100v38h137v85H179" id="ai"/><g id="v"><use transform="matrix(0.022222222222222227,0,0,0.022222222222222227,0,0)" xlink:href="#ai"/><use transform="matrix(0.022222222222222227,0,0,0.022222222222222227,7.488888888888891,0)" xlink:href="#Q"/><use transform="matrix(0.022222222222222227,0,0,0.022222222222222227,19.22222222222223,0)" xlink:href="#P"/><use transform="matrix(0.022222222222222227,0,0,0.022222222222222227,27.177777777777784,0)" xlink:href="#M"/><use transform="matrix(0.022222222222222227,0,0,0.022222222222222227,38.44444444444446,0)" xlink:href="#T"/><use transform="matrix(0.022222222222222227,0,0,0.022222222222222227,48.13333333333334,0)" xlink:href="#K"/><use transform="matrix(0.022222222222222227,0,0,0.022222222222222227,59.77777777777779,0)" xlink:href="#ac"/><use transform="matrix(0.022222222222222227,0,0,0.022222222222222227,70.68888888888891,0)" xlink:href="#U"/></g><path fill="#3d4752" d="M80 0v-694h97V0H80" id="aj"/><g id="w"><use transform="matrix(0.022222222222222227,0,0,0.022222222222222227,0,0)" xlink:href="#aj"/><use transform="matrix(0.022222222222222227,0,0,0.022222222222222227,5.711111111111112,0)" xlink:href="#W"/><use transform="matrix(0.022222222222222227,0,0,0.022222222222222227,18.28888888888889,0)" xlink:href="#ah"/><use transform="matrix(0.022222222222222227,0,0,0.022222222222222227,29.000000000000007,0)" xlink:href="#M"/><use transform="matrix(0.022222222222222227,0,0,0.022222222222222227,40.26666666666668,0)" xlink:href="#W"/><use transform="matrix(0.022222222222222227,0,0,0.022222222222222227,52.84444444444446,0)" xlink:href="#U"/><use transform="matrix(0.022222222222222227,0,0,0.022222222222222227,60.822222222222244,0)" xlink:href="#Q"/><use transform="matrix(0.022222222222222227,0,0,0.022222222222222227,72.55555555555559,0)" xlink:href="#P"/><use transform="matrix(0.022222222222222227,0,0,0.022222222222222227,80.51111111111115,0)" xlink:href="#aa"/></g><path fill="#3d4752" d="M466 0L355-250H180V0H83v-694h259c153 0 227 64 227 217 0 106-38 169-118 201L573 0H466zm3-475c0-86-41-127-127-127H180v260h163c94 0 126-53 126-133" id="ak"/><g id="x"><use transform="matrix(0.022222222222222227,0,0,0.022222222222222227,0,0)" xlink:href="#ak"/><use transform="matrix(0.022222222222222227,0,0,0.022222222222222227,13.77777777777778,0)" xlink:href="#M"/><use transform="matrix(0.022222222222222227,0,0,0.022222222222222227,25.044444444444448,0)" xlink:href="#T"/><use transform="matrix(0.022222222222222227,0,0,0.022222222222222227,34.73333333333334,0)" xlink:href="#V"/><use transform="matrix(0.022222222222222227,0,0,0.022222222222222227,40.22222222222223,0)" xlink:href="#M"/><use transform="matrix(0.022222222222222227,0,0,0.022222222222222227,51.4888888888889,0)" xlink:href="#ah"/><use transform="matrix(0.022222222222222227,0,0,0.022222222222222227,62.20000000000001,0)" xlink:href="#M"/><use transform="matrix(0.022222222222222227,0,0,0.022222222222222227,73.46666666666668,0)" xlink:href="#R"/></g><path fill="#3d4752" d="M267 240C113 240 43 207 43 87c0-54 25-85 77-124-20-13-31-40-31-71 0-21 36-79 36-79-40-21-76-59-76-150 0-125 82-173 195-173 48 0 103 13 103 13l148-3v78h-81c15 18 26 40 26 85 0 151-99 182-245 167 0 0-15 39-15 52 0 35 9 41 113 41 151 0 201 31 201 148 0 120-90 169-227 169zM285 5c-33 0-102-5-102-5-34 26-46 44-46 78 0 55 31 77 131 77 88 0 130-23 130-79 0-63-28-70-113-71zm-44-251c74 0 105-22 105-91 0-72-29-92-103-92-68 0-99 24-99 92 0 62 24 91 97 91" id="al"/><g id="y"><use transform="matrix(0.022222222222222227,0,0,0.022222222222222227,0,0)" xlink:href="#al"/><use transform="matrix(0.022222222222222227,0,0,0.022222222222222227,11.644444444444447,0)" xlink:href="#Q"/><use transform="matrix(0.022222222222222227,0,0,0.022222222222222227,23.377777777777784,0)" xlink:href="#Q"/><use transform="matrix(0.022222222222222227,0,0,0.022222222222222227,35.11111111111112,0)" xlink:href="#R"/><use transform="matrix(0.022222222222222227,0,0,0.022222222222222227,47.244444444444454,0)" xlink:href="#ac"/></g><g id="z"><use transform="matrix(0.022222222222222227,0,0,0.022222222222222227,0,0)" xlink:href="#O"/><use transform="matrix(0.022222222222222227,0,0,0.022222222222222227,13.355555555555558,0)" xlink:href="#S"/><use transform="matrix(0.022222222222222227,0,0,0.022222222222222227,25.777777777777782,0)" xlink:href="#P"/><use transform="matrix(0.022222222222222227,0,0,0.022222222222222227,33.73333333333334,0)" xlink:href="#T"/><use transform="matrix(0.022222222222222227,0,0,0.022222222222222227,43.42222222222223,0)" xlink:href="#ag"/><use transform="matrix(0.022222222222222227,0,0,0.022222222222222227,55.933333333333344,0)" xlink:href="#K"/><use transform="matrix(0.022222222222222227,0,0,0.022222222222222227,67.5777777777778,0)" xlink:href="#ac"/><use transform="matrix(0.022222222222222227,0,0,0.022222222222222227,78.48888888888891,0)" xlink:href="#M"/></g><g id="A"><use transform="matrix(0.022222222222222227,0,0,0.022222222222222227,0,0)" xlink:href="#Q"/><use transform="matrix(0.022222222222222227,0,0,0.022222222222222227,11.733333333333336,0)" xlink:href="#P"/><use transform="matrix(0.022222222222222227,0,0,0.022222222222222227,19.688888888888894,0)" xlink:href="#R"/><use transform="matrix(0.022222222222222227,0,0,0.022222222222222227,31.82222222222223,0)" xlink:href="#M"/><use transform="matrix(0.022222222222222227,0,0,0.022222222222222227,43.0888888888889,0)" xlink:href="#P"/></g><path fill="#3d4752" d="M324-83c145 0 176-82 176-260 0-172-33-268-176-268s-176 95-176 268c0 174 32 260 176 260zm0 94C110 11 48-111 48-343c0-230 62-362 276-362s277 131 277 362c0 236-62 354-277 354" id="am"/><g id="B"><use transform="matrix(0.022222222222222227,0,0,0.022222222222222227,0,0)" xlink:href="#am"/><use transform="matrix(0.022222222222222227,0,0,0.022222222222222227,14.422222222222224,0)" xlink:href="#P"/><use transform="matrix(0.022222222222222227,0,0,0.022222222222222227,22.37777777777778,0)" xlink:href="#R"/><use transform="matrix(0.022222222222222227,0,0,0.022222222222222227,34.51111111111112,0)" xlink:href="#M"/><use transform="matrix(0.022222222222222227,0,0,0.022222222222222227,45.777777777777786,0)" xlink:href="#P"/></g><g id="C"><use transform="matrix(0.022222222222222227,0,0,0.022222222222222227,0,0)" xlink:href="#R"/><use transform="matrix(0.022222222222222227,0,0,0.022222222222222227,12.133333333333336,0)" xlink:href="#M"/><use transform="matrix(0.022222222222222227,0,0,0.022222222222222227,23.400000000000006,0)" xlink:href="#T"/><use transform="matrix(0.022222222222222227,0,0,0.022222222222222227,33.088888888888896,0)" xlink:href="#V"/><use transform="matrix(0.022222222222222227,0,0,0.022222222222222227,38.57777777777778,0)" xlink:href="#ac"/><use transform="matrix(0.022222222222222227,0,0,0.022222222222222227,49.4888888888889,0)" xlink:href="#V"/><use transform="matrix(0.022222222222222227,0,0,0.022222222222222227,54.97777777777778,0)" xlink:href="#Q"/><use transform="matrix(0.022222222222222227,0,0,0.022222222222222227,66.71111111111112,0)" xlink:href="#W"/><use transform="matrix(0.022222222222222227,0,0,0.022222222222222227,79.2888888888889,0)" xlink:href="#ac"/></g><g id="D"><use transform="matrix(0.022222222222222227,0,0,0.022222222222222227,0,0)" xlink:href="#O"/><use transform="matrix(0.022222222222222227,0,0,0.022222222222222227,13.355555555555558,0)" xlink:href="#K"/><use transform="matrix(0.022222222222222227,0,0,0.022222222222222227,25.000000000000004,0)" xlink:href="#aa"/></g><path fill="#3d4752" d="M-6-601v-93h500v93H294V0h-98v-601H-6" id="an"/><g id="E"><use transform="matrix(0.022222222222222227,0,0,0.022222222222222227,0,0)" xlink:href="#an"/><use transform="matrix(0.022222222222222227,0,0,0.022222222222222227,10.844444444444447,0)" xlink:href="#V"/><use transform="matrix(0.022222222222222227,0,0,0.022222222222222227,16.333333333333336,0)" xlink:href="#Y"/><use transform="matrix(0.022222222222222227,0,0,0.022222222222222227,35.400000000000006,0)" xlink:href="#M"/></g><path fill="#3d4752" d="M22-499h94l88 414h19l104-405h100L531-85h19l88-414h94L621 0H465l-89-363L287 0H132" id="ao"/><path fill="#3d4752" d="M175 0H81v-712h94v410l68-6 132-191h107L328-267 486 0H379L245-216l-70 6V0" id="ap"/><g id="F"><use transform="matrix(0.022222222222222227,0,0,0.022222222222222227,0,0)" xlink:href="#ao"/><use transform="matrix(0.022222222222222227,0,0,0.022222222222222227,16.75555555555556,0)" xlink:href="#Q"/><use transform="matrix(0.022222222222222227,0,0,0.022222222222222227,28.488888888888894,0)" xlink:href="#P"/><use transform="matrix(0.022222222222222227,0,0,0.022222222222222227,36.44444444444445,0)" xlink:href="#ap"/><use transform="matrix(0.022222222222222227,0,0,0.022222222222222227,47.64444444444445,0)" xlink:href="#M"/><use transform="matrix(0.022222222222222227,0,0,0.022222222222222227,58.911111111111126,0)" xlink:href="#R"/></g></defs></g></svg>